<?xml version="1.0" encoding="UTF-8"?>
<svg width="17px" height="17px" viewBox="0 0 17 17" version="1.1" xmlns="http://www.w3.org/2000/svg" xmlns:xlink="http://www.w3.org/1999/xlink">
    <title>adiclub-spendable-points-icon-black</title>
    <g id="adiclub-spendable-points-icon-black" stroke="none" stroke-width="1" fill="none" fill-rule="evenodd">
        <g id="Group-5462" fill="#000000" fill-rule="nonzero">
            <path d="M13.2477,11.6468 C13.5255,11.7932 13.8675,11.6868 14.0131,11.4112 C14.4844,10.5207 14.7329,9.51395 14.7329,8.5 C14.7329,5.06401 11.936,2.26781 8.5,2.26781 C5.0633,2.26781 2.26709,5.06401 2.26709,8.5 C2.26709,11.9367 5.0633,14.7329 8.5,14.7329 C9.49895,14.7329 10.4915,14.4916 11.3705,14.0339 C11.6482,13.8903 11.756,13.5469 11.6118,13.2698 C11.4676,12.9935 11.1255,12.8835 10.8471,13.0285 C10.1195,13.4084 9.32901,13.6004 8.5,13.6004 C5.68809,13.6004 3.39957,11.3126 3.39957,8.5 C3.39957,5.6888 5.68809,3.40029 8.5,3.40029 C11.3119,3.40029 13.6004,5.6888 13.6004,8.5 C13.6004,9.33044 13.3962,10.1537 13.0121,10.8806 C12.865,11.1577 12.9706,11.5004 13.2477,11.6468 Z M8.5,0 C6.85841,0 5.26466,0.469842 3.89155,1.3574 C3.62807,1.52734 3.55309,1.87794 3.72303,2.14071 C3.89369,2.40348 4.24286,2.47774 4.50706,2.30922 C5.69523,1.54091 7.07762,1.1339 8.5,1.1339 C12.5622,1.1339 15.8661,4.43851 15.8661,8.5 C15.8661,12.5622 12.5622,15.8668 8.5,15.8668 C4.43779,15.8668 1.13319,12.5622 1.13319,8.5 C1.13319,7.09119 1.53234,5.72093 2.28852,4.53919 C2.45703,4.27499 2.37991,3.92439 2.11572,3.75588 C1.85223,3.58737 1.50164,3.66448 1.33384,3.92797 C0.461273,5.29251 0,6.87483 0,8.5 C0,13.1877 3.81229,17 8.5,17 C13.187,17 17,13.1877 17,8.5 C17,3.81372 13.187,0 8.5,0 Z" id="Shape"></path>
            <polygon id="Path" points="10.7038 8.59265 11.7728 10.3784 10.0558 10.3784 9.03507 8.67217 8.26192 7.38132 9.03507 6.91533 9.52193 6.62158"></polygon>
            <polygon id="Path" points="9.03507 9.67604 9.45403 10.3783 7.7382 10.3783 6.78545 8.78835 6.74364 8.71898 6.78545 8.6944 8.00536 7.95801"></polygon>
            <polygon id="Path" points="6.7854 9.79067 7.13678 10.3781 5.4198 10.3781 5.22708 10.0556 6.48842 9.2959"></polygon>
        </g>
    </g>
</svg>